#usda 1.0
(
    defaultPrim = "FrankaSoftLiftBlock"
    metersPerUnit = 1
    upAxis = "Z"
)

def Xform "FrankaSoftLiftBlock"
{
    def TetMesh "sim_mesh"
    {
        point3f[] points = [(-0.15, -0.025, -0.025), (-0.15, -0.025, 0.025), (-0.15, 0.025, -0.025), (-0.15, 0.025, 0.025), (-0.13, -0.025, -0.025), (-0.13, -0.025, 0.025), (-0.13, 0.025, -0.025), (-0.13, 0.025, 0.025), (-0.11, -0.025, -0.025), (-0.11, -0.025, 0.025), (-0.11, 0.025, -0.025), (-0.11, 0.025, 0.025), (-0.09, -0.025, -0.025), (-0.09, -0.025, 0.025), (-0.09, 0.025, -0.025), (-0.09, 0.025, 0.025), (-0.07, -0.025, -0.025), (-0.07, -0.025, 0.025), (-0.07, 0.025, -0.025), (-0.07, 0.025, 0.025), (-0.05, -0.025, -0.025), (-0.05, -0.025, 0.025), (-0.05, 0.025, -0.025), (-0.05, 0.025, 0.025), (-0.03, -0.025, -0.025), (-0.03, -0.025, 0.025), (-0.03, 0.025, -0.025), (-0.03, 0.025, 0.025), (-0.01, -0.025, -0.025), (-0.01, -0.025, 0.025), (-0.01, 0.025, -0.025), (-0.01, 0.025, 0.025), (0.01, -0.025, -0.025), (0.01, -0.025, 0.025), (0.01, 0.025, -0.025), (0.01, 0.025, 0.025), (0.03, -0.025, -0.025), (0.03, -0.025, 0.025), (0.03, 0.025, -0.025), (0.03, 0.025, 0.025), (0.05, -0.025, -0.025), (0.05, -0.025, 0.025), (0.05, 0.025, -0.025), (0.05, 0.025, 0.025), (0.07, -0.025, -0.025), (0.07, -0.025, 0.025), (0.07, 0.025, -0.025), (0.07, 0.025, 0.025), (0.09, -0.025, -0.025), (0.09, -0.025, 0.025), (0.09, 0.025, -0.025), (0.09, 0.025, 0.025), (0.11, -0.025, -0.025), (0.11, -0.025, 0.025), (0.11, 0.025, -0.025), (0.11, 0.025, 0.025), (0.13, -0.025, -0.025), (0.13, -0.025, 0.025), (0.13, 0.025, -0.025), (0.13, 0.025, 0.025), (0.15, -0.025, -0.025), (0.15, -0.025, 0.025), (0.15, 0.025, -0.025), (0.15, 0.025, 0.025)]
        int4[] tetVertexIndices = [(0, 1, 7, 3), (0, 3, 7, 2), (0, 2, 7, 6), (0, 6, 7, 4), (0, 4, 7, 5), (0, 5, 7, 1), (4, 5, 11, 7), (4, 7, 11, 6), (4, 6, 11, 10), (4, 10, 11, 8), (4, 8, 11, 9), (4, 9, 11, 5), (8, 9, 15, 11), (8, 11, 15, 10), (8, 10, 15, 14), (8, 14, 15, 12), (8, 12, 15, 13), (8, 13, 15, 9), (12, 13, 19, 15), (12, 15, 19, 14), (12, 14, 19, 18), (12, 18, 19, 16), (12, 16, 19, 17), (12, 17, 19, 13), (16, 17, 23, 19), (16, 19, 23, 18), (16, 18, 23, 22), (16, 22, 23, 20), (16, 20, 23, 21), (16, 21, 23, 17), (20, 21, 27, 23), (20, 23, 27, 22), (20, 22, 27, 26), (20, 26, 27, 24), (20, 24, 27, 25), (20, 25, 27, 21), (24, 25, 31, 27), (24, 27, 31, 26), (24, 26, 31, 30), (24, 30, 31, 28), (24, 28, 31, 29), (24, 29, 31, 25), (28, 29, 35, 31), (28, 31, 35, 30), (28, 30, 35, 34), (28, 34, 35, 32), (28, 32, 35, 33), (28, 33, 35, 29), (32, 33, 39, 35), (32, 35, 39, 34), (32, 34, 39, 38), (32, 38, 39, 36), (32, 36, 39, 37), (32, 37, 39, 33), (36, 37, 43, 39), (36, 39, 43, 38), (36, 38, 43, 42), (36, 42, 43, 40), (36, 40, 43, 41), (36, 41, 43, 37), (40, 41, 47, 43), (40, 43, 47, 42), (40, 42, 47, 46), (40, 46, 47, 44), (40, 44, 47, 45), (40, 45, 47, 41), (44, 45, 51, 47), (44, 47, 51, 46), (44, 46, 51, 50), (44, 50, 51, 48), (44, 48, 51, 49), (44, 49, 51, 45), (48, 49, 55, 51), (48, 51, 55, 50), (48, 50, 55, 54), (48, 54, 55, 52), (48, 52, 55, 53), (48, 53, 55, 49), (52, 53, 59, 55), (52, 55, 59, 54), (52, 54, 59, 58), (52, 58, 59, 56), (52, 56, 59, 57), (52, 57, 59, 53), (56, 57, 63, 59), (56, 59, 63, 58), (56, 58, 63, 62), (56, 62, 63, 60), (56, 60, 63, 61), (56, 61, 63, 57)]
    }
}
