#usda 1.0
(
    defaultPrim = "DeformableCable"
    metersPerUnit = 1
    upAxis = "Z"
)

def Xform "DeformableCable"
{
    def TetMesh "sim_mesh"
    {
        point3f[] points = [(-0.2, -0.012, -0.012), (-0.2, -0.012, 0.012), (-0.2, 0.012, -0.012), (-0.2, 0.012, 0.012), (-0.15, -0.012, -0.012), (-0.15, -0.012, 0.012), (-0.15, 0.012, -0.012), (-0.15, 0.012, 0.012), (-0.1, -0.012, -0.012), (-0.1, -0.012, 0.012), (-0.1, 0.012, -0.012), (-0.1, 0.012, 0.012), (-0.05, -0.012, -0.012), (-0.05, -0.012, 0.012), (-0.05, 0.012, -0.012), (-0.05, 0.012, 0.012), (0, -0.012, -0.012), (0, -0.012, 0.012), (0, 0.012, -0.012), (0, 0.012, 0.012), (0.05, -0.012, -0.012), (0.05, -0.012, 0.012), (0.05, 0.012, -0.012), (0.05, 0.012, 0.012), (0.1, -0.012, -0.012), (0.1, -0.012, 0.012), (0.1, 0.012, -0.012), (0.1, 0.012, 0.012), (0.15, -0.012, -0.012), (0.15, -0.012, 0.012), (0.15, 0.012, -0.012), (0.15, 0.012, 0.012), (0.2, -0.012, -0.012), (0.2, -0.012, 0.012), (0.2, 0.012, -0.012), (0.2, 0.012, 0.012)]
        int4[] tetVertexIndices = [(0, 1, 7, 3), (0, 3, 7, 2), (0, 2, 7, 6), (0, 6, 7, 4), (0, 4, 7, 5), (0, 5, 7, 1), (4, 5, 11, 7), (4, 7, 11, 6), (4, 6, 11, 10), (4, 10, 11, 8), (4, 8, 11, 9), (4, 9, 11, 5), (8, 9, 15, 11), (8, 11, 15, 10), (8, 10, 15, 14), (8, 14, 15, 12), (8, 12, 15, 13), (8, 13, 15, 9), (12, 13, 19, 15), (12, 15, 19, 14), (12, 14, 19, 18), (12, 18, 19, 16), (12, 16, 19, 17), (12, 17, 19, 13), (16, 17, 23, 19), (16, 19, 23, 18), (16, 18, 23, 22), (16, 22, 23, 20), (16, 20, 23, 21), (16, 21, 23, 17), (20, 21, 27, 23), (20, 23, 27, 22), (20, 22, 27, 26), (20, 26, 27, 24), (20, 24, 27, 25), (20, 25, 27, 21), (24, 25, 31, 27), (24, 27, 31, 26), (24, 26, 31, 30), (24, 30, 31, 28), (24, 28, 31, 29), (24, 29, 31, 25), (28, 29, 35, 31), (28, 31, 35, 30), (28, 30, 35, 34), (28, 34, 35, 32), (28, 32, 35, 33), (28, 33, 35, 29)]
    }
}
