#usda 1.0
(
    defaultPrim = "DeformableVolumeBlock"
    metersPerUnit = 1
    upAxis = "Z"
)

def Xform "DeformableVolumeBlock"
{
    def TetMesh "sim_mesh"
    {
        point3f[] points = [(-0.04, -0.02, -0.02), (-0.04, -0.02, 0.02), (-0.04, 0.02, -0.02), (-0.04, 0.02, 0.02), (-0.02, -0.02, -0.02), (-0.02, -0.02, 0.02), (-0.02, 0.02, -0.02), (-0.02, 0.02, 0.02), (0, -0.02, -0.02), (0, -0.02, 0.02), (0, 0.02, -0.02), (0, 0.02, 0.02), (0.02, -0.02, -0.02), (0.02, -0.02, 0.02), (0.02, 0.02, -0.02), (0.02, 0.02, 0.02), (0.04, -0.02, -0.02), (0.04, -0.02, 0.02), (0.04, 0.02, -0.02), (0.04, 0.02, 0.02)]
        int4[] tetVertexIndices = [(0, 1, 7, 3), (0, 3, 7, 2), (0, 2, 7, 6), (0, 6, 7, 4), (0, 4, 7, 5), (0, 5, 7, 1), (4, 5, 11, 7), (4, 7, 11, 6), (4, 6, 11, 10), (4, 10, 11, 8), (4, 8, 11, 9), (4, 9, 11, 5), (8, 9, 15, 11), (8, 11, 15, 10), (8, 10, 15, 14), (8, 14, 15, 12), (8, 12, 15, 13), (8, 13, 15, 9), (12, 13, 19, 15), (12, 15, 19, 14), (12, 14, 19, 18), (12, 18, 19, 16), (12, 16, 19, 17), (12, 17, 19, 13)]
    }
}
