#usda 1.0
(
    defaultPrim = "Asset"
    kilogramsPerUnit = 1
    metersPerUnit = 1
    upAxis = "Z"
)

def Xform "Asset"
{
    def Xform "stainless_table" (
        prepend references = @../industrial__stainless_metal_table_a03/industrial__stainless_metal_table_a03.usda@
    )
    {
        quatd xformOp:orient = (0.7071067811865476, 0, 0, 0.7071067811865476)
        double3 xformOp:translate = (0.3465017409436448, 0.00056502252117765, -0.0552371740552429)
        uniform token[] xformOpOrder = ["xformOp:translate", "xformOp:orient"]
    }

    def Xform "placement_surface"
    {
        def Points "bounds"
        {
            float3[] extent = [(-0.00193825, -0.89997414, -0.01), (0.69693825, 0.89997414, 0.0)]
            point3f[] points = [(-0.00193825, -0.89997414, -0.01), (0.69693825, 0.89997414, 0.0)]
            float[] primvars:displayOpacity = [0] (
                interpolation = "constant"
            )
            float[] widths = [0, 0]
        }

        def Mesh "mesh"
        {
            uniform bool doubleSided = 0
            int[] faceVertexCounts = [4, 4, 4, 4, 4, 4]
            int[] faceVertexIndices = [0, 1, 2, 3, 4, 7, 6, 5, 0, 4, 5, 1, 1, 5, 6, 2, 2, 6, 7, 3, 4, 0, 3, 7]
            point3f[] points = [
                (-0.00193825, -0.89997414, -0.01),
                (0.69693825, -0.89997414, -0.01),
                (0.69693825, 0.89997414, -0.01),
                (-0.00193825, 0.89997414, -0.01),
                (-0.00193825, -0.89997414, 0.0),
                (0.69693825, -0.89997414, 0.0),
                (0.69693825, 0.89997414, 0.0),
                (-0.00193825, 0.89997414, 0.0)
            ]
            uniform token purpose = "guide"
            uniform token subdivisionScheme = "none"
        }
    }
}
