<!--
Copyright (c) 2026, The Isaac Lab Arena Project Developers (https://github.com/isaac-sim/IsaacLab-Arena/blob/main/CONTRIBUTORS.md).
All rights reserved.

SPDX-License-Identifier: Apache-2.0
-->
<svg xmlns="http://www.w3.org/2000/svg" width="1200" height="675" viewBox="0 0 1200 675" role="img">
  <title>Wrist-camera position variation placeholder</title>
  <desc>Red placeholder with three camera positions connected by arrows.</desc>
  <rect width="1200" height="675" fill="#b71c1c"/>
  <rect x="36" y="36" width="1128" height="603" rx="24" fill="none" stroke="#ffffff" stroke-width="4" stroke-dasharray="14 12" opacity="0.75"/>

  <text x="600" y="125" fill="#ffffff" font-family="sans-serif" font-size="48" font-weight="700" text-anchor="middle">
    Wrist-camera position variation
  </text>
  <text x="600" y="176" fill="#ffffff" font-family="sans-serif" font-size="25" text-anchor="middle" opacity="0.85">
    Image placeholder
  </text>

  <g fill="none" stroke="#ffffff" stroke-width="8" stroke-linecap="round" stroke-linejoin="round">
    <path d="M385 366 H535" opacity="0.8"/>
    <path d="M515 346 L535 366 L515 386" opacity="0.8"/>
    <path d="M665 366 H815" opacity="0.8"/>
    <path d="M795 346 L815 366 L795 386" opacity="0.8"/>

    <g transform="translate(260 300)">
      <rect width="125" height="95" rx="12"/>
      <circle cx="62.5" cy="47.5" r="25"/>
      <path d="M125 28 L165 10 V85 L125 67 Z"/>
    </g>
    <g transform="translate(540 300)">
      <rect width="125" height="95" rx="12"/>
      <circle cx="62.5" cy="47.5" r="25"/>
      <path d="M125 28 L165 10 V85 L125 67 Z"/>
    </g>
    <g transform="translate(820 300)">
      <rect width="125" height="95" rx="12"/>
      <circle cx="62.5" cy="47.5" r="25"/>
      <path d="M125 28 L165 10 V85 L125 67 Z"/>
    </g>
  </g>

  <text x="600" y="520" fill="#ffffff" font-family="sans-serif" font-size="29" text-anchor="middle">
    Replace with an illustration of the wrist camera sampled at different positions
  </text>
</svg>
